ffmpeg version 4.2.7-0ubuntu0.1 Copyright (c) 2000-2022 the FFmpeg developers
  built with gcc 9 (Ubuntu 9.4.0-1ubuntu1~20.04.1)
  configuration: --prefix=/usr --extra-version=0ubuntu0.1 --toolchain=hardened --libdir=/usr/lib/x86_64-linux-gnu --incdir=/usr/include/x86_64-linux-gnu --arch=amd64 --enable-gpl --disable-stripping --enable-avresample --disable-filter=resample --enable-avisynth --enable-gnutls --enable-ladspa --enable-libaom --enable-libass --enable-libbluray --enable-libbs2b --enable-libcaca --enable-libcdio --enable-libcodec2 --enable-libflite --enable-libfontconfig --enable-libfreetype --enable-libfribidi --enable-libgme --enable-libgsm --enable-libjack --enable-libmp3lame --enable-libmysofa --enable-libopenjpeg --enable-libopenmpt --enable-libopus --enable-libpulse --enable-librsvg --enable-librubberband --enable-libshine --enable-libsnappy --enable-libsoxr --enable-libspeex --enable-libssh --enable-libtheora --enable-libtwolame --enable-libvidstab --enable-libvorbis --enable-libvpx --enable-libwavpack --enable-libwebp --enable-libx265 --enable-libxml2 --enable-libxvid --enable-libzmq --enable-libzvbi --enable-lv2 --enable-omx --enable-openal --enable-opencl --enable-opengl --enable-sdl2 --enable-libdc1394 --enable-libdrm --enable-libiec61883 --enable-nvenc --enable-chromaprint --enable-frei0r --enable-libx264 --enable-shared
  libavutil      56. 31.100 / 56. 31.100
  libavcodec     58. 54.100 / 58. 54.100
  libavformat    58. 29.100 / 58. 29.100
  libavdevice    58.  8.100 / 58.  8.100
  libavfilter     7. 57.100 /  7. 57.100
  libavresample   4.  0.  0 /  4.  0.  0
  libswscale      5.  5.100 /  5.  5.100
  libswresample   3.  5.100 /  3.  5.100
  libpostproc    55.  5.100 / 55.  5.100
Routing option strict to both codec and muxer layer
[h264 @ 0x55cd74b4b000] Reinit context to 576x1280, pix_fmt: yuv420p
Input #0, mov,mp4,m4a,3gp,3g2,mj2, from '/var/www/html/project/media/video/original/lv_0_20230706062558.mp4':
  Metadata:
    major_brand     : isom
    minor_version   : 512
    compatible_brands: isomiso2avc1mp41
    Hw              : 1
    LvMetaInfo      : {"data":{"ad_type":"","adsTemplateId":"","appVersion":"8.6.0","businessComponentId":"","businessTemplateId":"","capabilityName":"","ccTtVid":"","commercial_params":{"commercial_audio_music_cnt":0,"commercial_sticker_cnt":0,"commercial_text_font_cnt":0,"co
    bitrate         : 10000000
    copyright       : b2e5843d6745bb71a87fe738814a4c42
    maxrate         : 30000000
    te_is_reencode  : 1
    encoder         : bytevehwavc
  Duration: 00:00:08.94, start: 0.000000, bitrate: 8134 kb/s
    Stream #0:0(und): Video: h264 (High), 1 reference frame (avc1 / 0x31637661), yuv420p(tv, bt709, left), 576x1280, 7952 kb/s, 30 fps, 30 tbr, 1000k tbn, 2000k tbc (default)
    Metadata:
      handler_name    : VideoHandler
    Stream #0:1(und): Audio: aac (LC) (mp4a / 0x6134706D), 44100 Hz, stereo, fltp, 207 kb/s (default)
    Metadata:
      handler_name    : SoundHandler
Input #1, png_pipe, from '/var/www/html/project/static/images/templates/logo_vertical.png':
  Duration: N/A, bitrate: N/A
    Stream #1:0: Video: png, 1 reference frame, rgba(pc), 1920x1080 [SAR 2835:2835 DAR 16:9], 25 tbr, 25 tbn, 25 tbc
[Parsed_scale_1 @ 0x55cd74ba8a00] w:1280 h:720 flags:'bilinear' interl:0
[Parsed_scale_4 @ 0x55cd74b84b40] w:-1 h:720 flags:'bilinear' interl:0
[Parsed_scale_6 @ 0x55cd74b7da80] w:1280 h:720 flags:'bilinear' interl:0
Stream mapping:
  Stream #0:0 (h264) -> split (graph 0)
  Stream #1:0 (png) -> scale (graph 0)
  overlay (graph 0) -> Stream #0:0 (libx264)
  Stream #0:1 -> #0:1 (aac (native) -> aac (native))
Press [q] to stop, [?] for help
[h264 @ 0x55cd74c22280] Reinit context to 576x1280, pix_fmt: yuv420p
[graph_1_in_0_1 @ 0x55cd750d64c0] tb:1/44100 samplefmt:fltp samplerate:44100 chlayout:0x3
[Parsed_scale_1 @ 0x55cd75416b80] w:1280 h:720 flags:'bilinear' interl:0
[Parsed_scale_4 @ 0x55cd75419b40] w:-1 h:720 flags:'bilinear' interl:0
[Parsed_scale_6 @ 0x55cd7541b4c0] w:1280 h:720 flags:'bilinear' interl:0
[graph 0 input from stream 0:0 @ 0x55cd75418c40] w:576 h:1280 pixfmt:yuv420p tb:1/1000000 fr:30/1 sar:0/1 sws_param:flags=2
[graph 0 input from stream 1:0 @ 0x55cd75418240] w:1920 h:1080 pixfmt:rgba tb:1/25 fr:25/1 sar:2835/2835 sws_param:flags=2
[Parsed_scale_1 @ 0x55cd75416b80] w:576 h:1280 fmt:yuv420p sar:0/1 -> w:1280 h:720 fmt:yuv420p sar:0/1 flags:0x2
[Parsed_boxblur_2 @ 0x55cd75417500] luma_radius:36 luma_power:1 chroma_radius:18 chroma_power:1 alpha_radius:36 alpha_power:1 w:1280 chroma_w:640 h:720 chroma_h:360
[Parsed_setsar_3 @ 0x55cd75418d40] w:1280 h:720 sar:0/1 dar:16/9 -> sar:1/1 dar:16/9
[Parsed_scale_4 @ 0x55cd75419b40] w:576 h:1280 fmt:yuv420p sar:0/1 -> w:324 h:720 fmt:yuva420p sar:0/1 flags:0x2
[Parsed_setsar_5 @ 0x55cd7541a700] w:324 h:720 sar:0/1 dar:9/20 -> sar:1/1 dar:9/20
[Parsed_overlay_8 @ 0x55cd7541c480] main w:1280 h:720 fmt:yuv420p overlay w:324 h:720 fmt:yuva420p
[Parsed_overlay_8 @ 0x55cd7541c480] [framesync @ 0x55cd7541b328] Selected 1/1000000 time base
[Parsed_overlay_8 @ 0x55cd7541c480] [framesync @ 0x55cd7541b328] Sync level 2
[Parsed_scale_6 @ 0x55cd7541b4c0] w:1920 h:1080 fmt:rgba sar:2835/2835 -> w:1280 h:720 fmt:yuva420p sar:1/1 flags:0x2
[Parsed_setsar_7 @ 0x55cd7541bf80] w:1280 h:720 sar:1/1 dar:16/9 -> sar:1/1 dar:16/9
[Parsed_overlay_9 @ 0x55cd7541a4c0] main w:1280 h:720 fmt:yuv420p overlay w:1280 h:720 fmt:yuva420p
[Parsed_overlay_9 @ 0x55cd7541a4c0] [framesync @ 0x55cd75417968] Selected 1/1000000 time base
[Parsed_overlay_9 @ 0x55cd7541a4c0] [framesync @ 0x55cd75417968] Sync level 2
[libx264 @ 0x55cd74baa100] using SAR=1/1
[libx264 @ 0x55cd74baa100] using cpu capabilities: MMX2 SSE2Fast SSSE3 SSE4.2 AVX FMA3 BMI2 AVX2
[libx264 @ 0x55cd74baa100] profile High, level 3.1
[libx264 @ 0x55cd74baa100] 264 - core 155 r2917 0a84d98 - H.264/MPEG-4 AVC codec - Copyleft 2003-2018 - http://www.videolan.org/x264.html - options: cabac=1 ref=1 deblock=1:0:0 analyse=0x3:0x113 me=hex subme=2 psy=1 psy_rd=1.00:0.00 mixed_ref=0 me_range=16 chroma_me=1 trellis=0 8x8dct=1 cqm=0 deadzone=21,11 fast_pskip=1 chroma_qp_offset=0 threads=22 lookahead_threads=5 sliced_threads=0 nr=0 decimate=1 interlaced=0 bluray_compat=0 constrained_intra=0 bframes=3 b_pyramid=2 b_adapt=1 b_bias=0 direct=1 weightb=1 open_gop=0 weightp=1 keyint=250 keyint_min=25 scenecut=40 intra_refresh=0 rc_lookahead=10 rc=crf mbtree=1 crf=18.0 qcomp=0.60 qpmin=0 qpmax=69 qpstep=4 ip_ratio=1.40 aq=1:1.00
Output #0, mp4, to '/var/www/html/project/media/video/watermarks/lv_0_20230706062558.mp4':
  Metadata:
    major_brand     : isom
    minor_version   : 512
    compatible_brands: isomiso2avc1mp41
    Hw              : 1
    LvMetaInfo      : {"data":{"ad_type":"","adsTemplateId":"","appVersion":"8.6.0","businessComponentId":"","businessTemplateId":"","capabilityName":"","ccTtVid":"","commercial_params":{"commercial_audio_music_cnt":0,"commercial_sticker_cnt":0,"commercial_text_font_cnt":0,"co
    bitrate         : 10000000
    copyright       : b2e5843d6745bb71a87fe738814a4c42
    maxrate         : 30000000
    te_is_reencode  : 1
    encoder         : Lavf58.29.100
    Stream #0:0: Video: h264 (libx264), 1 reference frame (avc1 / 0x31637661), yuv420p, 1280x720 [SAR 1:1 DAR 16:9], q=-1--1, 30 fps, 15360 tbn, 30 tbc (default)
    Metadata:
      encoder         : Lavc58.54.100 libx264
    Side data:
      cpb: bitrate max/min/avg: 0/0/0 buffer size: 0 vbv_delay: -1
    Stream #0:1(und): Audio: aac (LC) (mp4a / 0x6134706D), 44100 Hz, stereo, fltp, delay 1024, 128 kb/s (default)
    Metadata:
      handler_name    : SoundHandler
      encoder         : Lavc58.54.100 aac
[Parsed_overlay_8 @ 0x55cd7541c480] [framesync @ 0x55cd7541b328] Sync level 1
[Parsed_overlay_8 @ 0x55cd7541c480] [framesync @ 0x55cd7541b328] Sync level 0
[Parsed_overlay_9 @ 0x55cd7541a4c0] [framesync @ 0x55cd75417968] Sync level 0
No more output streams to write to, finishing.
frame=  267 fps= 30 q=-1.0 Lsize=    5296kB time=00:00:08.89 bitrate=4878.6kbits/s speed=0.999x    
[AVIOContext @ 0x55cd74b49280] Statistics: 0 seeks, 18 writeouts
video:5117kB audio:169kB subtitle:0kB other streams:0kB global headers:0kB muxing overhead: 0.201038%
Input file #0 (/var/www/html/project/media/video/original/lv_0_20230706062558.mp4):
  Input stream #0:0 (video): 267 packets read (8846619 bytes); 267 frames decoded; 
  Input stream #0:1 (audio): 385 packets read (232105 bytes); 383 frames decoded (392192 samples); 
  Total: 652 packets (9078724 bytes) demuxed
Input file #1 (/var/www/html/project/static/images/templates/logo_vertical.png):
  Input stream #1:0 (video): 1 packets read (93903 bytes); 1 frames decoded; 
  Total: 1 packets (93903 bytes) demuxed
Output file #0 (/var/www/html/project/media/video/watermarks/lv_0_20230706062558.mp4):
  Output stream #0:0 (video): 267 frames encoded; 267 packets muxed (5239711 bytes); 
  Output stream #0:1 (audio): 383 frames encoded (392192 samples); 384 packets muxed (172707 bytes); 
  Total: 651 packets (5412418 bytes) muxed
[AVIOContext @ 0x55cd74b7bc80] Statistics: 2 seeks, 24 writeouts
[libx264 @ 0x55cd74baa100] frame I:2     Avg QP:17.93  size: 44180
[libx264 @ 0x55cd74baa100] frame P:92    Avg QP:19.57  size: 28351
[libx264 @ 0x55cd74baa100] frame B:173   Avg QP:20.44  size: 14696
[libx264 @ 0x55cd74baa100] consecutive B-frames:  7.9% 10.5% 20.2% 61.4%
[libx264 @ 0x55cd74baa100] mb I  I16..4: 30.5% 48.8% 20.7%
[libx264 @ 0x55cd74baa100] mb P  I16..4: 25.4% 35.1%  4.5%  P16..4: 19.3%  9.7%  4.3%  0.0%  0.0%    skip: 1.6%
[libx264 @ 0x55cd74baa100] mb B  I16..4: 12.3% 13.6%  1.0%  B16..8: 23.8%  8.7%  0.9%  direct:23.2%  skip:16.4%  L0:46.3% L1:45.9% BI: 7.8%
[libx264 @ 0x55cd74baa100] 8x8 transform intra:52.4% inter:39.0%
[libx264 @ 0x55cd74baa100] coded y,uvDC,uvAC intra: 34.7% 66.8% 14.9% inter: 13.7% 72.1% 8.1%
[libx264 @ 0x55cd74baa100] i16 v,h,dc,p: 23% 28% 10% 39%
[libx264 @ 0x55cd74baa100] i8 v,h,dc,ddl,ddr,vr,hd,vl,hu: 13% 52% 12%  3%  4%  3%  7%  3%  3%
[libx264 @ 0x55cd74baa100] i4 v,h,dc,ddl,ddr,vr,hd,vl,hu: 26% 30% 13%  4%  6%  5%  6%  4%  5%
[libx264 @ 0x55cd74baa100] i8c dc,h,v,p: 32% 33% 11% 24%
[libx264 @ 0x55cd74baa100] Weighted P-Frames: Y:26.1% UV:23.9%
[libx264 @ 0x55cd74baa100] kb/s:4709.23
[aac @ 0x55cd74b86580] Qavg: 1906.939
[AVIOContext @ 0x55cd74b52240] Statistics: 9123691 bytes read, 2 seeks
[AVIOContext @ 0x55cd74c38a80] Statistics: 93903 bytes read, 0 seeks
